<svg viewBox="0 0 14 11" xmlns="http://www.w3.org/2000/svg" xmlns:xlink="http://www.w3.org/1999/xlink" width="14.000000" height="11.000000" fill="none" customFrame="#000000">
	<rect id="Icons" width="14.000000" height="11.000000" x="0.000000" y="0.000000" fill="#ffffff" fill-opacity="0" />
	<path id="Arrow Left" d="M14 5.5C14 5.64586 13.9385 5.78575 13.8292 5.88889C13.7198 5.99203 13.5714 6.04997 13.4167 6.04997L1.99175 6.04997L6.2463 10.0606C6.30049 10.1117 6.34348 10.1724 6.37281 10.2391C6.40214 10.3059 6.41724 10.3775 6.41724 10.4497C6.41724 10.522 6.40214 10.5935 6.37281 10.6603C6.34348 10.7271 6.30049 10.7877 6.2463 10.8388C6.1921 10.8899 6.12776 10.9305 6.05695 10.9581C5.98614 10.9858 5.91025 11 5.8336 11C5.75696 11 5.68106 10.9858 5.61025 10.9581C5.53944 10.9305 5.4751 10.8899 5.42091 10.8388L0.171078 5.8891C0.116844 5.83803 0.0738191 5.77737 0.0444643 5.71061C0.0151094 5.64384 5.18087e-16 5.57227 0 5.5C5.18087e-16 5.42772 0.0151094 5.35616 0.0444643 5.28939C0.0738191 5.22263 0.116844 5.16197 0.171078 5.1109L5.42091 0.161172C5.53036 0.0579752 5.67881 -1.08735e-09 5.8336 0C5.98839 1.08735e-09 6.13684 0.0579752 6.2463 0.161172C6.35575 0.264368 6.41724 0.404333 6.41724 0.550275C6.41724 0.696217 6.35575 0.836182 6.2463 0.939378L1.99175 4.95003L13.4167 4.95003C13.5714 4.95003 13.7198 5.00797 13.8292 5.11111C13.9385 5.21425 14 5.35414 14 5.5Z" fill="#222222" fill-rule="nonzero" />
</svg>
