<svg viewBox="0 0 16 16" xmlns="http://www.w3.org/2000/svg" xmlns:xlink="http://www.w3.org/1999/xlink" width="16.000000" height="16.000000" fill="none" customFrame="#000000">
	<rect id="Icons" width="16.000000" height="16.000000" x="0.000000" y="0.000000" fill="#ffffff" fill-opacity="0" />
	<path id="Plant" d="M13.4403 9.23091L7.30415 9.23091L9.09701 7.50711C9.74519 7.82097 10.4594 7.9883 11.1851 7.99632C11.9155 7.99818 12.6323 7.80599 13.2563 7.44095C15.154 6.33636 16.1708 3.7795 15.9764 0.601115C15.9673 0.450569 15.901 0.308492 15.7901 0.201859C15.6791 0.095225 15.5314 0.0314592 15.3748 0.0226676C12.0691 -0.164251 9.40982 0.813418 8.26018 2.63799C7.51216 3.82642 7.49296 5.26177 8.19138 6.6379L7.04015 7.74479L6.06332 6.80558C6.54333 5.78638 6.50893 4.72871 5.95211 3.84565C5.08249 2.46184 3.08882 1.72417 0.618346 1.86339C0.462041 1.87235 0.314573 1.93608 0.203852 2.04254C0.0931315 2.149 0.0268414 2.29079 0.0175279 2.44107C-0.128077 4.81563 0.639947 6.73251 2.07999 7.56941C2.56176 7.85225 3.11556 8.00134 3.68004 8.00017C4.19214 7.99529 4.69727 7.88541 5.16169 7.67787L6.13532 8.61554L5.4953 9.23091L1.91999 9.23091C1.75024 9.23091 1.58745 9.29574 1.46742 9.41115C1.3474 9.52655 1.27997 9.68307 1.27997 9.84628C1.27997 10.0095 1.3474 10.166 1.46742 10.2814C1.58745 10.3968 1.75024 10.4617 1.91999 10.4617L2.68721 10.4617L3.74404 15.0362C3.80572 15.3103 3.96356 15.5557 4.19109 15.7311C4.41862 15.9066 4.702 16.0016 4.99368 16L10.3674 16C10.6591 16.0013 10.9423 15.9062 11.1698 15.7308C11.3972 15.5554 11.5551 15.3101 11.6171 15.0362L12.6739 10.4617L13.4403 10.4617C13.6101 10.4617 13.7729 10.3968 13.8929 10.2814C14.0129 10.166 14.0804 10.0095 14.0804 9.84628C14.0804 9.68307 14.0129 9.52655 13.8929 9.41115C13.7729 9.29574 13.6101 9.23091 13.4403 9.23091Z" fill="#ffffff" fill-rule="nonzero" />
</svg>
