<svg viewBox="0 0 16 20" xmlns="http://www.w3.org/2000/svg" xmlns:xlink="http://www.w3.org/1999/xlink" width="16.000000" height="20.000000" fill="none" customFrame="#000000">
	<rect id="Icons" width="16.000000" height="20.000000" x="0.000000" y="0.000000" fill="#ffffff" fill-opacity="0" />
	<path id="Lightbulb" d="M12.3636 19.2858C12.3636 19.4752 12.287 19.6569 12.1506 19.7908C12.0142 19.9248 11.8293 20 11.6364 20L4.36372 20C4.17083 20 3.98585 19.9248 3.84946 19.7908C3.71307 19.6569 3.63645 19.4752 3.63645 19.2858C3.63645 19.0964 3.71307 18.9147 3.84946 18.7808C3.98585 18.6468 4.17083 18.5716 4.36372 18.5716L11.6364 18.5716C11.8293 18.5716 12.0142 18.6468 12.1506 18.7808C12.287 18.9147 12.3636 19.0964 12.3636 19.2858ZM16 7.85853C16.0031 9.04914 15.7292 10.2247 15.1992 11.2956C14.6692 12.3664 13.8971 13.3042 12.9418 14.0373C12.7632 14.1717 12.6182 14.3445 12.518 14.5424C12.4178 14.7403 12.365 14.9581 12.3636 15.1791L12.3636 15.7148C12.3636 16.0936 12.2104 16.4569 11.9376 16.7248C11.6648 16.9927 11.2949 17.1432 10.9091 17.1432L5.09098 17.1432C4.70522 17.1432 4.33525 16.9927 4.06247 16.7248C3.78969 16.4569 3.63645 16.0936 3.63645 15.7148L3.63645 15.1791C3.6363 14.9607 3.58517 14.7453 3.48699 14.5494C3.38881 14.3535 3.24619 14.1822 3.07009 14.0489C2.11719 13.3201 1.3456 12.388 0.813728 11.3231C0.281853 10.2581 0.00363067 9.08837 0.000118953 7.90227C-0.0235172 3.6474 3.47827 0.104054 7.80732 0.00228026C8.87399 -0.0229627 9.93503 0.161595 10.928 0.545091C11.9209 0.928587 12.8257 1.50327 13.5891 2.23532C14.3525 2.96737 14.9591 3.84199 15.3731 4.8077C15.7872 5.77342 16.0003 6.81071 16 7.85853ZM11.4237 8.06743C11.3561 8.00103 11.2759 7.94835 11.1876 7.91241C11.0993 7.87647 11.0047 7.85796 10.9091 7.85796C10.8135 7.85796 10.7189 7.87647 10.6306 7.91241C10.5423 7.94835 10.4621 8.00103 10.3946 8.06743L8.00005 10.4198L5.60552 8.06743C5.46906 7.93342 5.28397 7.85813 5.09098 7.85813C4.89799 7.85813 4.71291 7.93342 4.57644 8.06743C4.43998 8.20145 4.36331 8.38321 4.36331 8.57273C4.36331 8.76226 4.43998 8.94402 4.57644 9.07803L7.27278 11.725L7.27278 15.0006C7.27278 15.19 7.3494 15.3716 7.48579 15.5056C7.62218 15.6395 7.80716 15.7148 8.00005 15.7148C8.19293 15.7148 8.37791 15.6395 8.5143 15.5056C8.65069 15.3716 8.72731 15.19 8.72731 15.0006L8.72731 11.725L11.4237 9.07803C11.4913 9.0117 11.5449 8.93293 11.5815 8.84623C11.6181 8.75953 11.6369 8.66659 11.6369 8.57273C11.6369 8.47887 11.6181 8.38594 11.5815 8.29923C11.5449 8.21253 11.4913 8.13376 11.4237 8.06743Z" fill="#ffffff" fill-rule="nonzero" />
</svg>
