<svg viewBox="0 0 16 16" xmlns="http://www.w3.org/2000/svg" xmlns:xlink="http://www.w3.org/1999/xlink" width="16.000000" height="16.000000" fill="none" customFrame="#000000">
	<rect id="Icons" width="16.000000" height="16.000000" x="0.000000" y="0.000000" fill="#ffffff" fill-opacity="0" />
	<path id="Globe" d="M8 0C6.41775 5.46571e-16 4.87103 0.469192 3.55544 1.34824C2.23985 2.22729 1.21447 3.47672 0.608967 4.93853C0.00346628 6.40034 -0.15496 8.00887 0.153721 9.56072C0.462403 11.1126 1.22433 12.538 2.34315 13.6569C3.46197 14.7757 4.88743 15.5376 6.43928 15.8463C7.99113 16.155 9.59966 15.9965 11.0615 15.391C12.5233 14.7855 13.7727 13.7602 14.6518 12.4446C15.5308 11.129 16 9.58225 16 8C15.9978 5.87895 15.1542 3.84542 13.6544 2.34562C12.1546 0.845814 10.121 0.00223986 8 0ZM14.7692 8C14.7699 8.86844 14.6027 9.72883 14.2769 10.5338L10.8385 8.41923C10.6923 8.32901 10.5287 8.27057 10.3585 8.24769L8.60308 8.01077C8.3612 7.97923 8.11539 8.01977 7.89645 8.12733C7.67751 8.23488 7.49518 8.40466 7.37231 8.61538L6.70154 8.61538L6.40923 8.01077C6.32842 7.84241 6.21016 7.69478 6.06349 7.57919C5.91683 7.46359 5.74565 7.38309 5.56308 7.34384L4.94769 7.21077L5.54923 6.15384L6.83462 6.15384C7.04261 6.15344 7.24714 6.10052 7.42923 6L8.37154 5.48C8.45433 5.43385 8.53173 5.37864 8.60231 5.31538L10.6723 3.44308C10.8798 3.25709 11.0178 3.00591 11.0634 2.73098C11.109 2.45605 11.0595 2.17379 10.9231 1.93077L10.8954 1.88077C12.0537 2.43 13.0325 3.29646 13.7182 4.37958C14.4039 5.4627 14.7683 6.71808 14.7692 8ZM1.23077 8C1.22974 6.99386 1.45422 6.00028 1.8877 5.09231L2.76 7.42077C2.8327 7.61356 2.95263 7.78501 3.1088 7.91941C3.26497 8.0538 3.45238 8.14684 3.65385 8.19L5.30231 8.54461L5.59539 9.15384C5.6971 9.36105 5.85473 9.53569 6.05047 9.65802C6.2462 9.78036 6.47225 9.84552 6.70308 9.84615L6.81693 9.84615L6.26077 11.0946C6.16278 11.3144 6.13139 11.5582 6.1705 11.7957C6.2096 12.0331 6.31747 12.254 6.48077 12.4308L6.49154 12.4415L8 13.9954L7.85077 14.7646C6.08295 14.7235 4.4012 13.9931 3.1644 12.7292C1.92761 11.4654 1.23371 9.7683 1.23077 8Z" fill="#ffffff" fill-rule="nonzero" />
</svg>
