<svg viewBox="0 0 20 20" xmlns="http://www.w3.org/2000/svg" xmlns:xlink="http://www.w3.org/1999/xlink" width="20.000000" height="20.000000" fill="none">
	<rect id="Illustartion" width="20.000000" height="20.000000" x="0.000000" y="0.000000" fill="#ffffff" fill-opacity="0" />
	<g id="Layer 1">
		<g id="Group">
			<path id="Vector" d="M10.0004 10.1961C7.18862 10.1961 4.90234 7.9098 4.90234 5.09804C4.90234 2.28627 7.18862 0 10.0004 0C12.8121 0 15.0984 2.28627 15.0984 5.09804C15.0984 7.9098 12.8121 10.1961 10.0004 10.1961ZM10.0004 0.392157C7.40627 0.392157 5.2945 2.50392 5.2945 5.09804C5.2945 7.69216 7.40627 9.80392 10.0004 9.80392C12.5945 9.80392 14.7063 7.69216 14.7063 5.09804C14.7063 2.50392 12.5945 0.392157 10.0004 0.392157Z" fill="#4f54c8" fill-rule="nonzero" />
			<path id="Vector" d="M10.0004 20C7.18862 20 4.90234 17.7137 4.90234 14.902C4.90234 12.0902 7.18862 9.80392 10.0004 9.80392C12.8121 9.80392 15.0984 12.0902 15.0984 14.902C15.0984 17.7137 12.8121 20 10.0004 20ZM10.0004 10.1961C7.40627 10.1961 5.2945 12.3078 5.2945 14.902C5.2945 17.4961 7.40627 19.6078 10.0004 19.6078C12.5945 19.6078 14.7063 17.4961 14.7063 14.902C14.7063 12.3078 12.5945 10.1961 10.0004 10.1961Z" fill="#4f54c8" fill-rule="nonzero" />
			<path id="Vector" d="M5.09804 15.4098C2.28627 15.4098 0 13.1235 0 10.3118C0 7.5 2.28627 5.21373 5.09804 5.21373C7.9098 5.21373 10.1961 7.5 10.1961 10.3118C10.1961 13.1235 7.9098 15.4098 5.09804 15.4098ZM5.09804 5.60589C2.50392 5.60589 0.392157 7.71765 0.392157 10.3118C0.392157 12.9059 2.50392 15.0176 5.09804 15.0176C7.69216 15.0176 9.80392 12.9059 9.80392 10.3118C9.80392 7.71765 7.69216 5.60589 5.09804 5.60589Z" fill="#4f54c8" fill-rule="nonzero" />
			<path id="Vector" d="M14.9018 15.4098C12.09 15.4098 9.80371 13.1235 9.80371 10.3118C9.80371 7.5 12.09 5.21373 14.9018 5.21373C17.7135 5.21373 19.9998 7.5 19.9998 10.3118C19.9998 13.1235 17.7135 15.4098 14.9018 15.4098ZM14.9018 5.60589C12.3076 5.60589 10.1959 7.71765 10.1959 10.3118C10.1959 12.9059 12.3076 15.0176 14.9018 15.0176C17.4959 15.0176 19.6076 12.9059 19.6076 10.3118C19.6076 7.71765 17.4959 5.60589 14.9018 5.60589Z" fill="#4f54c8" fill-rule="nonzero" />
		</g>
	</g>
</svg>
