<svg viewBox="0 0 14 11" xmlns="http://www.w3.org/2000/svg" xmlns:xlink="http://www.w3.org/1999/xlink" width="14.000000" height="11.000000" fill="none" customFrame="#000000">
	<rect id="Icons" width="14.000000" height="11.000000" x="0.000000" y="0.000000" fill="#ffffff" fill-opacity="0" />
	<path id="Arrow Right" d="M13.8289 5.8891L8.57909 10.8388C8.46964 10.942 8.32119 11 8.1664 11C8.01161 11 7.86316 10.942 7.7537 10.8388C7.64425 10.7356 7.58276 10.5957 7.58276 10.4497C7.58276 10.3038 7.64425 10.1638 7.7537 10.0606L12.0083 6.04997L0.583314 6.04997C0.42861 6.04997 0.280242 5.99203 0.170849 5.88889C0.0614563 5.78575 0 5.64586 0 5.5C0 5.35414 0.0614563 5.21425 0.170849 5.11111C0.280242 5.00797 0.42861 4.95003 0.583314 4.95003L12.0083 4.95003L7.7537 0.939378C7.64425 0.836182 7.58276 0.696217 7.58276 0.550275C7.58276 0.404333 7.64425 0.264368 7.7537 0.161172C7.86316 0.0579752 8.01161 4.88471e-16 8.1664 0C8.32119 0 8.46964 0.0579752 8.57909 0.161172L13.8289 5.1109C13.8832 5.16197 13.9262 5.22263 13.9555 5.28939C13.9849 5.35616 14 5.42772 14 5.5C14 5.57227 13.9849 5.64384 13.9555 5.71061C13.9262 5.77737 13.8832 5.83803 13.8289 5.8891Z" fill="#222222" fill-rule="nonzero" />
</svg>
