<svg viewBox="0 0 100 28" xmlns="http://www.w3.org/2000/svg" xmlns:xlink="http://www.w3.org/1999/xlink" width="100.000000" height="28.000000" fill="none" customFrame="#000000">
	<rect id="Logo" width="100.000000" height="28.000000" x="0.000000" y="0.000000" />
	<path id="Logo" d="M21 7.4452C21 7.4452 20.9888 7.4452 20.9832 7.4452C20.9916 7.2968 21 7.1484 21 7C21 3.1332 17.8668 0 14 0C10.1332 0 7 3.1332 7 7C7 7.1512 7.0056 7.2996 7.0168 7.4452C7.0112 7.4452 7.0056 7.4452 7 7.4452C3.1332 7.4452 0 10.5812 0 14.4452C0 18.3092 3.1332 21.4452 7 21.4452C7.0056 21.4452 7.0112 21.4452 7.0168 21.4452C7.2464 25.1048 10.2844 28 14 28C17.7156 28 20.7536 25.1048 20.9832 21.4452C20.9888 21.4452 20.9944 21.4452 21 21.4452C24.8668 21.4452 28 18.312 28 14.4452C28 10.5784 24.8668 7.4452 21 7.4452ZM14 16.8C12.4544 16.8 11.2 15.5456 11.2 14C11.2 12.4544 12.4544 11.2 14 11.2C15.5456 11.2 16.8 12.4544 16.8 14C16.8 15.5456 15.5456 16.8 14 16.8Z" fill="rgb(244,72,23)" fill-rule="nonzero" />
	<path id="Bizzier" d="M37.38 20.82L37.38 6.82L43.12 6.82C44.0933 6.82 44.9133 6.97333 45.58 7.28C46.2467 7.58667 46.7467 8.01333 47.08 8.56C47.4267 9.09333 47.6 9.71333 47.6 10.42C47.6 11.1267 47.4467 11.72 47.14 12.2C46.8333 12.68 46.4267 13.0533 45.92 13.32C45.4267 13.5733 44.88 13.72 44.28 13.76L44.6 13.54C45.24 13.5667 45.8067 13.74 46.3 14.06C46.8067 14.3667 47.2 14.78 47.48 15.3C47.7733 15.82 47.92 16.3867 47.92 17C47.92 17.7467 47.74 18.4067 47.38 18.98C47.02 19.5533 46.5 20.0067 45.82 20.34C45.14 20.66 44.3067 20.82 43.32 20.82L37.38 20.82ZM40.08 18.62L42.88 18.62C43.6133 18.62 44.18 18.4533 44.58 18.12C44.98 17.7867 45.18 17.3067 45.18 16.68C45.18 16.0533 44.9733 15.5667 44.56 15.22C44.1467 14.86 43.5733 14.68 42.84 14.68L40.08 14.68L40.08 18.62ZM40.08 12.66L42.68 12.66C43.3867 12.66 43.92 12.5 44.28 12.18C44.6533 11.86 44.84 11.4067 44.84 10.82C44.84 10.2467 44.6533 9.8 44.28 9.48C43.92 9.14667 43.38 8.98 42.66 8.98L40.08 8.98L40.08 12.66ZM50.1339 20.82L50.1339 10.74L52.8339 10.74L52.8339 20.82L50.1339 20.82ZM51.4939 9.36C51.0139 9.36 50.6139 9.22 50.2939 8.94C49.9872 8.64667 49.8339 8.28 49.8339 7.84C49.8339 7.4 49.9872 7.04 50.2939 6.76C50.6139 6.46667 51.0139 6.32 51.4939 6.32C51.9872 6.32 52.3872 6.46667 52.6939 6.76C53.0139 7.04 53.1739 7.4 53.1739 7.84C53.1739 8.28 53.0139 8.64667 52.6939 8.94C52.3872 9.22 51.9872 9.36 51.4939 9.36ZM54.9022 20.82L54.9022 18.66L59.9822 12.98L54.9622 12.98L54.9622 10.74L63.0822 10.74L63.0822 12.92L57.9622 18.58L63.1822 18.58L63.1822 20.82L54.9022 20.82ZM64.7069 20.82L64.7069 18.66L69.7869 12.98L64.7669 12.98L64.7669 10.74L72.8869 10.74L72.8869 12.92L67.7669 18.58L72.9869 18.58L72.9869 20.82L64.7069 20.82ZM75.2316 20.82L75.2316 10.74L77.9316 10.74L77.9316 20.82L75.2316 20.82ZM76.5916 9.36C76.1116 9.36 75.7116 9.22 75.3916 8.94C75.0849 8.64667 74.9316 8.28 74.9316 7.84C74.9316 7.4 75.0849 7.04 75.3916 6.76C75.7116 6.46667 76.1116 6.32 76.5916 6.32C77.0849 6.32 77.4849 6.46667 77.7916 6.76C78.1116 7.04 78.2716 7.4 78.2716 7.84C78.2716 8.28 78.1116 8.64667 77.7916 8.94C77.4849 9.22 77.0849 9.36 76.5916 9.36ZM85.4998 21.06C84.4865 21.06 83.5865 20.8467 82.7998 20.42C82.0265 19.98 81.4198 19.3733 80.9798 18.6C80.5532 17.8133 80.3398 16.9067 80.3398 15.88C80.3398 14.8267 80.5532 13.9 80.9798 13.1C81.4198 12.2867 82.0265 11.6533 82.7998 11.2C83.5732 10.7333 84.4732 10.5 85.4998 10.5C86.4998 10.5 87.3732 10.72 88.1198 11.16C88.8665 11.6 89.4465 12.1933 89.8598 12.94C90.2732 13.6867 90.4798 14.5333 90.4798 15.48C90.4798 15.6133 90.4798 15.7667 90.4798 15.94C90.4798 16.1 90.4665 16.2667 90.4398 16.44L82.2598 16.44L82.2598 14.8L87.7598 14.8C87.7198 14.1467 87.4865 13.6333 87.0598 13.26C86.6465 12.8867 86.1265 12.7 85.4998 12.7C85.0465 12.7 84.6265 12.8067 84.2398 13.02C83.8532 13.22 83.5465 13.5333 83.3198 13.96C83.1065 14.3867 82.9998 14.9267 82.9998 15.58L82.9998 16.16C82.9998 16.7067 83.0998 17.1867 83.2998 17.6C83.5132 18 83.8065 18.3133 84.1798 18.54C84.5532 18.7533 84.9865 18.86 85.4798 18.86C85.9732 18.86 86.3798 18.7533 86.6998 18.54C87.0332 18.3267 87.2798 18.0533 87.4398 17.72L90.1998 17.72C90.0132 18.3467 89.6998 18.9133 89.2598 19.42C88.8198 19.9267 88.2798 20.3267 87.6398 20.62C86.9998 20.9133 86.2865 21.06 85.4998 21.06ZM92.6911 20.82L92.6911 10.74L95.0911 10.74L95.3511 12.6L95.3511 12.6C95.5911 12.16 95.8911 11.7867 96.2511 11.48C96.6244 11.1733 97.0444 10.9333 97.5111 10.76C97.9911 10.5867 98.5178 10.5 99.0911 10.5L99.0911 13.36L98.1711 13.36C97.7711 13.36 97.3978 13.4067 97.0511 13.5C96.7178 13.5933 96.4244 13.7467 96.1711 13.96C95.9178 14.16 95.7244 14.44 95.5911 14.8C95.4578 15.16 95.3911 15.6133 95.3911 16.16L95.3911 20.82L92.6911 20.82Z" fill="rgb(34,34,34)" fill-rule="nonzero" />
</svg>
